<mxfile host="app.diagrams.net" agent="Mozilla/5.0 (Windows NT 10.0; Win64; x64) AppleWebKit/537.36 (KHTML, like Gecko) Chrome/134.0.0.0 Safari/537.36" version="26.1.3">
  <diagram name="Страница — 1" id="5Vq_OnbsTE1wuJN1gTt8">
    <mxGraphModel dx="2087" dy="2118" grid="0" gridSize="10" guides="1" tooltips="1" connect="1" arrows="1" fold="1" page="0" pageScale="1" pageWidth="827" pageHeight="1169" math="0" shadow="0">
      <root>
        <mxCell id="0" />
        <mxCell id="1" parent="0" />
        <mxCell id="q-3NJ_i0JlGtm7fgb5uP-1" value="users" style="swimlane;fontStyle=0;childLayout=stackLayout;horizontal=1;startSize=30;horizontalStack=0;resizeParent=1;resizeParentMax=0;resizeLast=0;collapsible=1;marginBottom=0;whiteSpace=wrap;html=1;" parent="1" vertex="1">
          <mxGeometry x="-307" y="-425" width="140" height="150" as="geometry" />
        </mxCell>
        <mxCell id="q-3NJ_i0JlGtm7fgb5uP-2" value="id &amp;lt;PK&amp;gt;" style="text;strokeColor=none;fillColor=none;align=left;verticalAlign=middle;spacingLeft=4;spacingRight=4;overflow=hidden;points=[[0,0.5],[1,0.5]];portConstraint=eastwest;rotatable=0;whiteSpace=wrap;html=1;" parent="q-3NJ_i0JlGtm7fgb5uP-1" vertex="1">
          <mxGeometry y="30" width="140" height="30" as="geometry" />
        </mxCell>
        <mxCell id="0n1-I_KRBoGYLclnzSfa-15" value="email" style="text;strokeColor=none;fillColor=none;align=left;verticalAlign=middle;spacingLeft=4;spacingRight=4;overflow=hidden;points=[[0,0.5],[1,0.5]];portConstraint=eastwest;rotatable=0;whiteSpace=wrap;html=1;" vertex="1" parent="q-3NJ_i0JlGtm7fgb5uP-1">
          <mxGeometry y="60" width="140" height="30" as="geometry" />
        </mxCell>
        <mxCell id="q-3NJ_i0JlGtm7fgb5uP-4" value="first_name" style="text;strokeColor=none;fillColor=none;align=left;verticalAlign=middle;spacingLeft=4;spacingRight=4;overflow=hidden;points=[[0,0.5],[1,0.5]];portConstraint=eastwest;rotatable=0;whiteSpace=wrap;html=1;" parent="q-3NJ_i0JlGtm7fgb5uP-1" vertex="1">
          <mxGeometry y="90" width="140" height="30" as="geometry" />
        </mxCell>
        <mxCell id="0n1-I_KRBoGYLclnzSfa-16" value="last_name" style="text;strokeColor=none;fillColor=none;align=left;verticalAlign=middle;spacingLeft=4;spacingRight=4;overflow=hidden;points=[[0,0.5],[1,0.5]];portConstraint=eastwest;rotatable=0;whiteSpace=wrap;html=1;" vertex="1" parent="q-3NJ_i0JlGtm7fgb5uP-1">
          <mxGeometry y="120" width="140" height="30" as="geometry" />
        </mxCell>
        <mxCell id="q-3NJ_i0JlGtm7fgb5uP-5" value="roles" style="swimlane;fontStyle=0;childLayout=stackLayout;horizontal=1;startSize=30;horizontalStack=0;resizeParent=1;resizeParentMax=0;resizeLast=0;collapsible=1;marginBottom=0;whiteSpace=wrap;html=1;" parent="1" vertex="1">
          <mxGeometry x="-307" y="-810" width="140" height="90" as="geometry" />
        </mxCell>
        <mxCell id="q-3NJ_i0JlGtm7fgb5uP-6" value="id &amp;lt;PK&amp;gt;" style="text;strokeColor=none;fillColor=none;align=left;verticalAlign=middle;spacingLeft=4;spacingRight=4;overflow=hidden;points=[[0,0.5],[1,0.5]];portConstraint=eastwest;rotatable=0;whiteSpace=wrap;html=1;" parent="q-3NJ_i0JlGtm7fgb5uP-5" vertex="1">
          <mxGeometry y="30" width="140" height="30" as="geometry" />
        </mxCell>
        <mxCell id="q-3NJ_i0JlGtm7fgb5uP-7" value="name" style="text;strokeColor=none;fillColor=none;align=left;verticalAlign=middle;spacingLeft=4;spacingRight=4;overflow=hidden;points=[[0,0.5],[1,0.5]];portConstraint=eastwest;rotatable=0;whiteSpace=wrap;html=1;" parent="q-3NJ_i0JlGtm7fgb5uP-5" vertex="1">
          <mxGeometry y="60" width="140" height="30" as="geometry" />
        </mxCell>
        <mxCell id="q-3NJ_i0JlGtm7fgb5uP-9" value="user_roles" style="swimlane;fontStyle=0;childLayout=stackLayout;horizontal=1;startSize=30;horizontalStack=0;resizeParent=1;resizeParentMax=0;resizeLast=0;collapsible=1;marginBottom=0;whiteSpace=wrap;html=1;" parent="1" vertex="1">
          <mxGeometry x="-311" y="-614" width="140" height="90" as="geometry" />
        </mxCell>
        <mxCell id="q-3NJ_i0JlGtm7fgb5uP-10" value="user_id &amp;lt;PK&amp;gt;" style="text;strokeColor=none;fillColor=none;align=left;verticalAlign=middle;spacingLeft=4;spacingRight=4;overflow=hidden;points=[[0,0.5],[1,0.5]];portConstraint=eastwest;rotatable=0;whiteSpace=wrap;html=1;" parent="q-3NJ_i0JlGtm7fgb5uP-9" vertex="1">
          <mxGeometry y="30" width="140" height="30" as="geometry" />
        </mxCell>
        <mxCell id="q-3NJ_i0JlGtm7fgb5uP-11" value="role_id &amp;lt;PK&amp;gt;" style="text;strokeColor=none;fillColor=none;align=left;verticalAlign=middle;spacingLeft=4;spacingRight=4;overflow=hidden;points=[[0,0.5],[1,0.5]];portConstraint=eastwest;rotatable=0;whiteSpace=wrap;html=1;" parent="q-3NJ_i0JlGtm7fgb5uP-9" vertex="1">
          <mxGeometry y="60" width="140" height="30" as="geometry" />
        </mxCell>
        <mxCell id="q-3NJ_i0JlGtm7fgb5uP-13" value="offers" style="swimlane;fontStyle=0;childLayout=stackLayout;horizontal=1;startSize=30;horizontalStack=0;resizeParent=1;resizeParentMax=0;resizeLast=0;collapsible=1;marginBottom=0;whiteSpace=wrap;html=1;" parent="1" vertex="1">
          <mxGeometry x="461" y="-397" width="140" height="210" as="geometry" />
        </mxCell>
        <mxCell id="q-3NJ_i0JlGtm7fgb5uP-15" value="id &amp;lt;PK&amp;gt;" style="text;strokeColor=none;fillColor=none;align=left;verticalAlign=middle;spacingLeft=4;spacingRight=4;overflow=hidden;points=[[0,0.5],[1,0.5]];portConstraint=eastwest;rotatable=0;whiteSpace=wrap;html=1;" parent="q-3NJ_i0JlGtm7fgb5uP-13" vertex="1">
          <mxGeometry y="30" width="140" height="30" as="geometry" />
        </mxCell>
        <mxCell id="q-3NJ_i0JlGtm7fgb5uP-14" value="user_id &amp;lt;FK&amp;gt;" style="text;strokeColor=none;fillColor=none;align=left;verticalAlign=middle;spacingLeft=4;spacingRight=4;overflow=hidden;points=[[0,0.5],[1,0.5]];portConstraint=eastwest;rotatable=0;whiteSpace=wrap;html=1;" parent="q-3NJ_i0JlGtm7fgb5uP-13" vertex="1">
          <mxGeometry y="60" width="140" height="30" as="geometry" />
        </mxCell>
        <mxCell id="0n1-I_KRBoGYLclnzSfa-19" value="currency &amp;lt;FK&amp;gt;" style="text;strokeColor=none;fillColor=none;align=left;verticalAlign=middle;spacingLeft=4;spacingRight=4;overflow=hidden;points=[[0,0.5],[1,0.5]];portConstraint=eastwest;rotatable=0;whiteSpace=wrap;html=1;" vertex="1" parent="q-3NJ_i0JlGtm7fgb5uP-13">
          <mxGeometry y="90" width="140" height="30" as="geometry" />
        </mxCell>
        <mxCell id="q-3NJ_i0JlGtm7fgb5uP-16" value="name" style="text;strokeColor=none;fillColor=none;align=left;verticalAlign=middle;spacingLeft=4;spacingRight=4;overflow=hidden;points=[[0,0.5],[1,0.5]];portConstraint=eastwest;rotatable=0;whiteSpace=wrap;html=1;" parent="q-3NJ_i0JlGtm7fgb5uP-13" vertex="1">
          <mxGeometry y="120" width="140" height="30" as="geometry" />
        </mxCell>
        <mxCell id="0n1-I_KRBoGYLclnzSfa-17" value="description" style="text;strokeColor=none;fillColor=none;align=left;verticalAlign=middle;spacingLeft=4;spacingRight=4;overflow=hidden;points=[[0,0.5],[1,0.5]];portConstraint=eastwest;rotatable=0;whiteSpace=wrap;html=1;" vertex="1" parent="q-3NJ_i0JlGtm7fgb5uP-13">
          <mxGeometry y="150" width="140" height="30" as="geometry" />
        </mxCell>
        <mxCell id="0n1-I_KRBoGYLclnzSfa-18" value="price" style="text;strokeColor=none;fillColor=none;align=left;verticalAlign=middle;spacingLeft=4;spacingRight=4;overflow=hidden;points=[[0,0.5],[1,0.5]];portConstraint=eastwest;rotatable=0;whiteSpace=wrap;html=1;" vertex="1" parent="q-3NJ_i0JlGtm7fgb5uP-13">
          <mxGeometry y="180" width="140" height="30" as="geometry" />
        </mxCell>
        <mxCell id="q-3NJ_i0JlGtm7fgb5uP-17" value="calendar" style="swimlane;fontStyle=0;childLayout=stackLayout;horizontal=1;startSize=30;horizontalStack=0;resizeParent=1;resizeParentMax=0;resizeLast=0;collapsible=1;marginBottom=0;whiteSpace=wrap;html=1;" parent="1" vertex="1">
          <mxGeometry x="461" y="-112" width="140" height="90" as="geometry" />
        </mxCell>
        <mxCell id="q-3NJ_i0JlGtm7fgb5uP-18" value="id &amp;lt;PK&amp;gt;" style="text;strokeColor=none;fillColor=none;align=left;verticalAlign=middle;spacingLeft=4;spacingRight=4;overflow=hidden;points=[[0,0.5],[1,0.5]];portConstraint=eastwest;rotatable=0;whiteSpace=wrap;html=1;" parent="q-3NJ_i0JlGtm7fgb5uP-17" vertex="1">
          <mxGeometry y="30" width="140" height="30" as="geometry" />
        </mxCell>
        <mxCell id="q-3NJ_i0JlGtm7fgb5uP-19" value="offer_id &amp;lt;FK&amp;gt;" style="text;strokeColor=none;fillColor=none;align=left;verticalAlign=middle;spacingLeft=4;spacingRight=4;overflow=hidden;points=[[0,0.5],[1,0.5]];portConstraint=eastwest;rotatable=0;whiteSpace=wrap;html=1;" parent="q-3NJ_i0JlGtm7fgb5uP-17" vertex="1">
          <mxGeometry y="60" width="140" height="30" as="geometry" />
        </mxCell>
        <mxCell id="q-3NJ_i0JlGtm7fgb5uP-21" value="categories" style="swimlane;fontStyle=0;childLayout=stackLayout;horizontal=1;startSize=30;horizontalStack=0;resizeParent=1;resizeParentMax=0;resizeLast=0;collapsible=1;marginBottom=0;whiteSpace=wrap;html=1;" parent="1" vertex="1">
          <mxGeometry x="458" y="-772" width="140" height="90" as="geometry" />
        </mxCell>
        <mxCell id="q-3NJ_i0JlGtm7fgb5uP-22" value="id &amp;lt;PK&amp;gt;" style="text;strokeColor=none;fillColor=none;align=left;verticalAlign=middle;spacingLeft=4;spacingRight=4;overflow=hidden;points=[[0,0.5],[1,0.5]];portConstraint=eastwest;rotatable=0;whiteSpace=wrap;html=1;" parent="q-3NJ_i0JlGtm7fgb5uP-21" vertex="1">
          <mxGeometry y="30" width="140" height="30" as="geometry" />
        </mxCell>
        <mxCell id="q-3NJ_i0JlGtm7fgb5uP-23" value="name" style="text;strokeColor=none;fillColor=none;align=left;verticalAlign=middle;spacingLeft=4;spacingRight=4;overflow=hidden;points=[[0,0.5],[1,0.5]];portConstraint=eastwest;rotatable=0;whiteSpace=wrap;html=1;" parent="q-3NJ_i0JlGtm7fgb5uP-21" vertex="1">
          <mxGeometry y="60" width="140" height="30" as="geometry" />
        </mxCell>
        <mxCell id="q-3NJ_i0JlGtm7fgb5uP-25" value="offer_categories" style="swimlane;fontStyle=0;childLayout=stackLayout;horizontal=1;startSize=30;horizontalStack=0;resizeParent=1;resizeParentMax=0;resizeLast=0;collapsible=1;marginBottom=0;whiteSpace=wrap;html=1;" parent="1" vertex="1">
          <mxGeometry x="461" y="-587" width="140" height="90" as="geometry" />
        </mxCell>
        <mxCell id="q-3NJ_i0JlGtm7fgb5uP-26" value="offer_id &amp;lt;FK&amp;gt;" style="text;strokeColor=none;fillColor=none;align=left;verticalAlign=middle;spacingLeft=4;spacingRight=4;overflow=hidden;points=[[0,0.5],[1,0.5]];portConstraint=eastwest;rotatable=0;whiteSpace=wrap;html=1;" parent="q-3NJ_i0JlGtm7fgb5uP-25" vertex="1">
          <mxGeometry y="30" width="140" height="30" as="geometry" />
        </mxCell>
        <mxCell id="q-3NJ_i0JlGtm7fgb5uP-27" value="category_id &amp;lt;FK&amp;gt;" style="text;strokeColor=none;fillColor=none;align=left;verticalAlign=middle;spacingLeft=4;spacingRight=4;overflow=hidden;points=[[0,0.5],[1,0.5]];portConstraint=eastwest;rotatable=0;whiteSpace=wrap;html=1;" parent="q-3NJ_i0JlGtm7fgb5uP-25" vertex="1">
          <mxGeometry y="60" width="140" height="30" as="geometry" />
        </mxCell>
        <mxCell id="q-3NJ_i0JlGtm7fgb5uP-29" value="request" style="swimlane;fontStyle=0;childLayout=stackLayout;horizontal=1;startSize=30;horizontalStack=0;resizeParent=1;resizeParentMax=0;resizeLast=0;collapsible=1;marginBottom=0;whiteSpace=wrap;html=1;" parent="1" vertex="1">
          <mxGeometry x="93" y="-614" width="140" height="150" as="geometry" />
        </mxCell>
        <mxCell id="q-3NJ_i0JlGtm7fgb5uP-30" value="id &amp;lt;PK&amp;gt;" style="text;strokeColor=none;fillColor=none;align=left;verticalAlign=middle;spacingLeft=4;spacingRight=4;overflow=hidden;points=[[0,0.5],[1,0.5]];portConstraint=eastwest;rotatable=0;whiteSpace=wrap;html=1;" parent="q-3NJ_i0JlGtm7fgb5uP-29" vertex="1">
          <mxGeometry y="30" width="140" height="30" as="geometry" />
        </mxCell>
        <mxCell id="q-3NJ_i0JlGtm7fgb5uP-31" value="user_id &amp;lt;FK&amp;gt;" style="text;strokeColor=none;fillColor=none;align=left;verticalAlign=middle;spacingLeft=4;spacingRight=4;overflow=hidden;points=[[0,0.5],[1,0.5]];portConstraint=eastwest;rotatable=0;whiteSpace=wrap;html=1;" parent="q-3NJ_i0JlGtm7fgb5uP-29" vertex="1">
          <mxGeometry y="60" width="140" height="30" as="geometry" />
        </mxCell>
        <mxCell id="0n1-I_KRBoGYLclnzSfa-31" value="offer_id &amp;lt;FK&amp;gt;" style="text;strokeColor=none;fillColor=none;align=left;verticalAlign=middle;spacingLeft=4;spacingRight=4;overflow=hidden;points=[[0,0.5],[1,0.5]];portConstraint=eastwest;rotatable=0;whiteSpace=wrap;html=1;" vertex="1" parent="q-3NJ_i0JlGtm7fgb5uP-29">
          <mxGeometry y="90" width="140" height="30" as="geometry" />
        </mxCell>
        <mxCell id="q-3NJ_i0JlGtm7fgb5uP-32" value="status &amp;lt;FK&amp;gt;" style="text;strokeColor=none;fillColor=none;align=left;verticalAlign=middle;spacingLeft=4;spacingRight=4;overflow=hidden;points=[[0,0.5],[1,0.5]];portConstraint=eastwest;rotatable=0;whiteSpace=wrap;html=1;" parent="q-3NJ_i0JlGtm7fgb5uP-29" vertex="1">
          <mxGeometry y="120" width="140" height="30" as="geometry" />
        </mxCell>
        <mxCell id="q-3NJ_i0JlGtm7fgb5uP-37" value="images" style="swimlane;fontStyle=0;childLayout=stackLayout;horizontal=1;startSize=30;horizontalStack=0;resizeParent=1;resizeParentMax=0;resizeLast=0;collapsible=1;marginBottom=0;whiteSpace=wrap;html=1;" parent="1" vertex="1">
          <mxGeometry x="932" y="-315" width="140" height="90" as="geometry" />
        </mxCell>
        <mxCell id="q-3NJ_i0JlGtm7fgb5uP-38" value="id &amp;lt;PK&amp;gt;" style="text;strokeColor=none;fillColor=none;align=left;verticalAlign=middle;spacingLeft=4;spacingRight=4;overflow=hidden;points=[[0,0.5],[1,0.5]];portConstraint=eastwest;rotatable=0;whiteSpace=wrap;html=1;" parent="q-3NJ_i0JlGtm7fgb5uP-37" vertex="1">
          <mxGeometry y="30" width="140" height="30" as="geometry" />
        </mxCell>
        <mxCell id="q-3NJ_i0JlGtm7fgb5uP-39" value="path" style="text;strokeColor=none;fillColor=none;align=left;verticalAlign=middle;spacingLeft=4;spacingRight=4;overflow=hidden;points=[[0,0.5],[1,0.5]];portConstraint=eastwest;rotatable=0;whiteSpace=wrap;html=1;" parent="q-3NJ_i0JlGtm7fgb5uP-37" vertex="1">
          <mxGeometry y="60" width="140" height="30" as="geometry" />
        </mxCell>
        <mxCell id="q-3NJ_i0JlGtm7fgb5uP-41" value="offer_images" style="swimlane;fontStyle=0;childLayout=stackLayout;horizontal=1;startSize=30;horizontalStack=0;resizeParent=1;resizeParentMax=0;resizeLast=0;collapsible=1;marginBottom=0;whiteSpace=wrap;html=1;" parent="1" vertex="1">
          <mxGeometry x="728" y="-315" width="140" height="90" as="geometry" />
        </mxCell>
        <mxCell id="q-3NJ_i0JlGtm7fgb5uP-42" value="offer_id" style="text;strokeColor=none;fillColor=none;align=left;verticalAlign=middle;spacingLeft=4;spacingRight=4;overflow=hidden;points=[[0,0.5],[1,0.5]];portConstraint=eastwest;rotatable=0;whiteSpace=wrap;html=1;" parent="q-3NJ_i0JlGtm7fgb5uP-41" vertex="1">
          <mxGeometry y="30" width="140" height="30" as="geometry" />
        </mxCell>
        <mxCell id="q-3NJ_i0JlGtm7fgb5uP-43" value="image_id" style="text;strokeColor=none;fillColor=none;align=left;verticalAlign=middle;spacingLeft=4;spacingRight=4;overflow=hidden;points=[[0,0.5],[1,0.5]];portConstraint=eastwest;rotatable=0;whiteSpace=wrap;html=1;" parent="q-3NJ_i0JlGtm7fgb5uP-41" vertex="1">
          <mxGeometry y="60" width="140" height="30" as="geometry" />
        </mxCell>
        <mxCell id="q-3NJ_i0JlGtm7fgb5uP-45" value="user_chosen_offers" style="swimlane;fontStyle=0;childLayout=stackLayout;horizontal=1;startSize=30;horizontalStack=0;resizeParent=1;resizeParentMax=0;resizeLast=0;collapsible=1;marginBottom=0;whiteSpace=wrap;html=1;" parent="1" vertex="1">
          <mxGeometry x="93" y="-365" width="140" height="90" as="geometry" />
        </mxCell>
        <mxCell id="q-3NJ_i0JlGtm7fgb5uP-46" value="user_id" style="text;strokeColor=none;fillColor=none;align=left;verticalAlign=middle;spacingLeft=4;spacingRight=4;overflow=hidden;points=[[0,0.5],[1,0.5]];portConstraint=eastwest;rotatable=0;whiteSpace=wrap;html=1;" parent="q-3NJ_i0JlGtm7fgb5uP-45" vertex="1">
          <mxGeometry y="30" width="140" height="30" as="geometry" />
        </mxCell>
        <mxCell id="q-3NJ_i0JlGtm7fgb5uP-47" value="offer_id" style="text;strokeColor=none;fillColor=none;align=left;verticalAlign=middle;spacingLeft=4;spacingRight=4;overflow=hidden;points=[[0,0.5],[1,0.5]];portConstraint=eastwest;rotatable=0;whiteSpace=wrap;html=1;" parent="q-3NJ_i0JlGtm7fgb5uP-45" vertex="1">
          <mxGeometry y="60" width="140" height="30" as="geometry" />
        </mxCell>
        <mxCell id="q-3NJ_i0JlGtm7fgb5uP-49" value="cities" style="swimlane;fontStyle=0;childLayout=stackLayout;horizontal=1;startSize=30;horizontalStack=0;resizeParent=1;resizeParentMax=0;resizeLast=0;collapsible=1;marginBottom=0;whiteSpace=wrap;html=1;" parent="1" vertex="1">
          <mxGeometry x="715" y="-510" width="140" height="90" as="geometry" />
        </mxCell>
        <mxCell id="q-3NJ_i0JlGtm7fgb5uP-50" value="id &amp;lt;PK&amp;gt;" style="text;strokeColor=none;fillColor=none;align=left;verticalAlign=middle;spacingLeft=4;spacingRight=4;overflow=hidden;points=[[0,0.5],[1,0.5]];portConstraint=eastwest;rotatable=0;whiteSpace=wrap;html=1;" parent="q-3NJ_i0JlGtm7fgb5uP-49" vertex="1">
          <mxGeometry y="30" width="140" height="30" as="geometry" />
        </mxCell>
        <mxCell id="q-3NJ_i0JlGtm7fgb5uP-51" value="name&amp;nbsp;" style="text;strokeColor=none;fillColor=none;align=left;verticalAlign=middle;spacingLeft=4;spacingRight=4;overflow=hidden;points=[[0,0.5],[1,0.5]];portConstraint=eastwest;rotatable=0;whiteSpace=wrap;html=1;" parent="q-3NJ_i0JlGtm7fgb5uP-49" vertex="1">
          <mxGeometry y="60" width="140" height="30" as="geometry" />
        </mxCell>
        <mxCell id="q-3NJ_i0JlGtm7fgb5uP-57" value="dates" style="swimlane;fontStyle=0;childLayout=stackLayout;horizontal=1;startSize=30;horizontalStack=0;resizeParent=1;resizeParentMax=0;resizeLast=0;collapsible=1;marginBottom=0;whiteSpace=wrap;html=1;" parent="1" vertex="1">
          <mxGeometry x="186" y="-112" width="140" height="120" as="geometry" />
        </mxCell>
        <mxCell id="q-3NJ_i0JlGtm7fgb5uP-58" value="id &amp;lt;PK&amp;gt;" style="text;strokeColor=none;fillColor=none;align=left;verticalAlign=middle;spacingLeft=4;spacingRight=4;overflow=hidden;points=[[0,0.5],[1,0.5]];portConstraint=eastwest;rotatable=0;whiteSpace=wrap;html=1;" parent="q-3NJ_i0JlGtm7fgb5uP-57" vertex="1">
          <mxGeometry y="30" width="140" height="30" as="geometry" />
        </mxCell>
        <mxCell id="q-3NJ_i0JlGtm7fgb5uP-66" value="calendar_id &amp;lt;FK&amp;gt;" style="text;strokeColor=none;fillColor=none;align=left;verticalAlign=middle;spacingLeft=4;spacingRight=4;overflow=hidden;points=[[0,0.5],[1,0.5]];portConstraint=eastwest;rotatable=0;whiteSpace=wrap;html=1;" parent="q-3NJ_i0JlGtm7fgb5uP-57" vertex="1">
          <mxGeometry y="60" width="140" height="30" as="geometry" />
        </mxCell>
        <mxCell id="q-3NJ_i0JlGtm7fgb5uP-59" value="timestamp" style="text;strokeColor=none;fillColor=none;align=left;verticalAlign=middle;spacingLeft=4;spacingRight=4;overflow=hidden;points=[[0,0.5],[1,0.5]];portConstraint=eastwest;rotatable=0;whiteSpace=wrap;html=1;" parent="q-3NJ_i0JlGtm7fgb5uP-57" vertex="1">
          <mxGeometry y="90" width="140" height="30" as="geometry" />
        </mxCell>
        <mxCell id="q-3NJ_i0JlGtm7fgb5uP-65" value="everyday remve earliest date and add newer" style="shape=note;whiteSpace=wrap;html=1;backgroundOutline=1;darkOpacity=0.05;" parent="1" vertex="1">
          <mxGeometry x="468" y="301" width="101" height="123" as="geometry" />
        </mxCell>
        <mxCell id="GMQNaE0KR-4zl4OnR8li-2" value="" style="endArrow=none;html=1;rounded=0;entryX=0;entryY=0.5;entryDx=0;entryDy=0;exitX=1;exitY=0.5;exitDx=0;exitDy=0;" parent="1" source="q-3NJ_i0JlGtm7fgb5uP-4" target="q-3NJ_i0JlGtm7fgb5uP-46" edge="1">
          <mxGeometry width="50" height="50" relative="1" as="geometry">
            <mxPoint x="45" y="-299" as="sourcePoint" />
            <mxPoint x="182.00000000000023" y="-324" as="targetPoint" />
          </mxGeometry>
        </mxCell>
        <mxCell id="GMQNaE0KR-4zl4OnR8li-3" value="" style="endArrow=none;html=1;rounded=0;entryX=0.011;entryY=0.233;entryDx=0;entryDy=0;exitX=1;exitY=0.5;exitDx=0;exitDy=0;entryPerimeter=0;" parent="1" source="q-3NJ_i0JlGtm7fgb5uP-46" target="q-3NJ_i0JlGtm7fgb5uP-14" edge="1">
          <mxGeometry width="50" height="50" relative="1" as="geometry">
            <mxPoint x="322.0000000000002" y="-324" as="sourcePoint" />
            <mxPoint x="289" y="-19" as="targetPoint" />
          </mxGeometry>
        </mxCell>
        <mxCell id="GMQNaE0KR-4zl4OnR8li-4" value="" style="endArrow=none;html=1;rounded=0;entryX=0.519;entryY=1.05;entryDx=0;entryDy=0;exitX=0.5;exitY=0;exitDx=0;exitDy=0;entryPerimeter=0;" parent="1" source="q-3NJ_i0JlGtm7fgb5uP-1" target="q-3NJ_i0JlGtm7fgb5uP-11" edge="1">
          <mxGeometry width="50" height="50" relative="1" as="geometry">
            <mxPoint x="174" y="-336" as="sourcePoint" />
            <mxPoint x="-171" y="-509" as="targetPoint" />
          </mxGeometry>
        </mxCell>
        <mxCell id="GMQNaE0KR-4zl4OnR8li-5" value="" style="endArrow=none;html=1;rounded=0;entryX=0.5;entryY=0;entryDx=0;entryDy=0;exitX=0.469;exitY=1.039;exitDx=0;exitDy=0;exitPerimeter=0;" parent="1" source="q-3NJ_i0JlGtm7fgb5uP-7" target="q-3NJ_i0JlGtm7fgb5uP-9" edge="1">
          <mxGeometry width="50" height="50" relative="1" as="geometry">
            <mxPoint x="-94" y="-757" as="sourcePoint" />
            <mxPoint x="224" y="-386" as="targetPoint" />
          </mxGeometry>
        </mxCell>
        <mxCell id="GMQNaE0KR-4zl4OnR8li-7" value="" style="endArrow=none;html=1;rounded=0;entryX=1;entryY=0.5;entryDx=0;entryDy=0;exitX=0;exitY=0.5;exitDx=0;exitDy=0;" parent="1" source="q-3NJ_i0JlGtm7fgb5uP-42" target="q-3NJ_i0JlGtm7fgb5uP-16" edge="1">
          <mxGeometry width="50" height="50" relative="1" as="geometry">
            <mxPoint x="355" y="-81" as="sourcePoint" />
            <mxPoint x="405" y="-131" as="targetPoint" />
          </mxGeometry>
        </mxCell>
        <mxCell id="GMQNaE0KR-4zl4OnR8li-8" value="" style="endArrow=none;html=1;rounded=0;entryX=0;entryY=0.5;entryDx=0;entryDy=0;exitX=1;exitY=0.5;exitDx=0;exitDy=0;" parent="1" source="q-3NJ_i0JlGtm7fgb5uP-42" target="q-3NJ_i0JlGtm7fgb5uP-38" edge="1">
          <mxGeometry width="50" height="50" relative="1" as="geometry">
            <mxPoint x="355" y="-81" as="sourcePoint" />
            <mxPoint x="405" y="-131" as="targetPoint" />
          </mxGeometry>
        </mxCell>
        <mxCell id="GMQNaE0KR-4zl4OnR8li-9" value="" style="endArrow=none;html=1;rounded=0;entryX=1;entryY=0;entryDx=0;entryDy=0;exitX=0;exitY=0.5;exitDx=0;exitDy=0;" parent="1" source="q-3NJ_i0JlGtm7fgb5uP-50" target="q-3NJ_i0JlGtm7fgb5uP-13" edge="1">
          <mxGeometry width="50" height="50" relative="1" as="geometry">
            <mxPoint x="703" y="-482" as="sourcePoint" />
            <mxPoint x="309" y="-277" as="targetPoint" />
          </mxGeometry>
        </mxCell>
        <mxCell id="0n1-I_KRBoGYLclnzSfa-3" value="" style="endArrow=none;html=1;rounded=0;exitX=0.5;exitY=0;exitDx=0;exitDy=0;entryX=0.514;entryY=1.017;entryDx=0;entryDy=0;entryPerimeter=0;" edge="1" parent="1" source="q-3NJ_i0JlGtm7fgb5uP-25" target="q-3NJ_i0JlGtm7fgb5uP-23">
          <mxGeometry width="50" height="50" relative="1" as="geometry">
            <mxPoint x="422" y="-283" as="sourcePoint" />
            <mxPoint x="532.4000000000001" y="-688.28" as="targetPoint" />
          </mxGeometry>
        </mxCell>
        <mxCell id="0n1-I_KRBoGYLclnzSfa-4" value="" style="endArrow=none;html=1;rounded=0;exitX=0.475;exitY=1.011;exitDx=0;exitDy=0;exitPerimeter=0;entryX=0.5;entryY=0;entryDx=0;entryDy=0;" edge="1" parent="1" source="q-3NJ_i0JlGtm7fgb5uP-27" target="q-3NJ_i0JlGtm7fgb5uP-13">
          <mxGeometry width="50" height="50" relative="1" as="geometry">
            <mxPoint x="532.3999999999996" y="-465.44000000000005" as="sourcePoint" />
            <mxPoint x="472" y="-333" as="targetPoint" />
          </mxGeometry>
        </mxCell>
        <mxCell id="0n1-I_KRBoGYLclnzSfa-5" value="" style="endArrow=none;html=1;rounded=0;exitX=0.5;exitY=0;exitDx=0;exitDy=0;entryX=0.487;entryY=1.011;entryDx=0;entryDy=0;entryPerimeter=0;" edge="1" parent="1" source="q-3NJ_i0JlGtm7fgb5uP-17" target="0n1-I_KRBoGYLclnzSfa-18">
          <mxGeometry width="50" height="50" relative="1" as="geometry">
            <mxPoint x="422" y="-283" as="sourcePoint" />
            <mxPoint x="472" y="-333" as="targetPoint" />
          </mxGeometry>
        </mxCell>
        <mxCell id="0n1-I_KRBoGYLclnzSfa-6" value="" style="endArrow=none;html=1;rounded=0;exitX=1;exitY=0.5;exitDx=0;exitDy=0;entryX=0;entryY=0.5;entryDx=0;entryDy=0;" edge="1" parent="1" source="q-3NJ_i0JlGtm7fgb5uP-58" target="q-3NJ_i0JlGtm7fgb5uP-18">
          <mxGeometry width="50" height="50" relative="1" as="geometry">
            <mxPoint x="422" y="-283" as="sourcePoint" />
            <mxPoint x="472" y="-333" as="targetPoint" />
          </mxGeometry>
        </mxCell>
        <mxCell id="0n1-I_KRBoGYLclnzSfa-7" value="" style="endArrow=none;html=1;rounded=0;entryX=0;entryY=0;entryDx=0;entryDy=0;exitX=1;exitY=0.5;exitDx=0;exitDy=0;" edge="1" parent="1" source="q-3NJ_i0JlGtm7fgb5uP-31" target="q-3NJ_i0JlGtm7fgb5uP-13">
          <mxGeometry width="50" height="50" relative="1" as="geometry">
            <mxPoint x="380" y="-450" as="sourcePoint" />
            <mxPoint x="417" y="-350" as="targetPoint" />
          </mxGeometry>
        </mxCell>
        <mxCell id="0n1-I_KRBoGYLclnzSfa-8" value="" style="endArrow=none;html=1;rounded=0;exitX=1;exitY=0.25;exitDx=0;exitDy=0;entryX=0;entryY=0.5;entryDx=0;entryDy=0;" edge="1" parent="1" source="q-3NJ_i0JlGtm7fgb5uP-1" target="q-3NJ_i0JlGtm7fgb5uP-31">
          <mxGeometry width="50" height="50" relative="1" as="geometry">
            <mxPoint x="59" y="-444" as="sourcePoint" />
            <mxPoint x="109" y="-494" as="targetPoint" />
          </mxGeometry>
        </mxCell>
        <mxCell id="0n1-I_KRBoGYLclnzSfa-20" value="currency" style="swimlane;fontStyle=0;childLayout=stackLayout;horizontal=1;startSize=30;horizontalStack=0;resizeParent=1;resizeParentMax=0;resizeLast=0;collapsible=1;marginBottom=0;whiteSpace=wrap;html=1;" vertex="1" parent="1">
          <mxGeometry x="715" y="-112" width="140" height="90" as="geometry" />
        </mxCell>
        <mxCell id="0n1-I_KRBoGYLclnzSfa-21" value="id &amp;lt;PK&amp;gt;" style="text;strokeColor=none;fillColor=none;align=left;verticalAlign=middle;spacingLeft=4;spacingRight=4;overflow=hidden;points=[[0,0.5],[1,0.5]];portConstraint=eastwest;rotatable=0;whiteSpace=wrap;html=1;" vertex="1" parent="0n1-I_KRBoGYLclnzSfa-20">
          <mxGeometry y="30" width="140" height="30" as="geometry" />
        </mxCell>
        <mxCell id="0n1-I_KRBoGYLclnzSfa-22" value="name" style="text;strokeColor=none;fillColor=none;align=left;verticalAlign=middle;spacingLeft=4;spacingRight=4;overflow=hidden;points=[[0,0.5],[1,0.5]];portConstraint=eastwest;rotatable=0;whiteSpace=wrap;html=1;" vertex="1" parent="0n1-I_KRBoGYLclnzSfa-20">
          <mxGeometry y="60" width="140" height="30" as="geometry" />
        </mxCell>
        <mxCell id="0n1-I_KRBoGYLclnzSfa-24" value="" style="endArrow=none;html=1;rounded=0;entryX=0;entryY=0;entryDx=0;entryDy=0;exitX=0.993;exitY=0.983;exitDx=0;exitDy=0;exitPerimeter=0;" edge="1" parent="1" source="0n1-I_KRBoGYLclnzSfa-18" target="0n1-I_KRBoGYLclnzSfa-20">
          <mxGeometry width="50" height="50" relative="1" as="geometry">
            <mxPoint x="374" y="-246" as="sourcePoint" />
            <mxPoint x="424" y="-296" as="targetPoint" />
          </mxGeometry>
        </mxCell>
        <mxCell id="0n1-I_KRBoGYLclnzSfa-25" value="status" style="swimlane;fontStyle=0;childLayout=stackLayout;horizontal=1;startSize=26;horizontalStack=0;resizeParent=1;resizeParentMax=0;resizeLast=0;collapsible=1;marginBottom=0;align=center;fontSize=14;" vertex="1" parent="1">
          <mxGeometry x="83" y="-778" width="160" height="86" as="geometry" />
        </mxCell>
        <mxCell id="0n1-I_KRBoGYLclnzSfa-26" value="id" style="text;strokeColor=none;fillColor=none;spacingLeft=4;spacingRight=4;overflow=hidden;rotatable=0;points=[[0,0.5],[1,0.5]];portConstraint=eastwest;fontSize=12;whiteSpace=wrap;html=1;" vertex="1" parent="0n1-I_KRBoGYLclnzSfa-25">
          <mxGeometry y="26" width="160" height="30" as="geometry" />
        </mxCell>
        <mxCell id="0n1-I_KRBoGYLclnzSfa-27" value="name" style="text;strokeColor=none;fillColor=none;spacingLeft=4;spacingRight=4;overflow=hidden;rotatable=0;points=[[0,0.5],[1,0.5]];portConstraint=eastwest;fontSize=12;whiteSpace=wrap;html=1;" vertex="1" parent="0n1-I_KRBoGYLclnzSfa-25">
          <mxGeometry y="56" width="160" height="30" as="geometry" />
        </mxCell>
        <mxCell id="0n1-I_KRBoGYLclnzSfa-29" value="" style="endArrow=none;html=1;rounded=0;entryX=0.508;entryY=0.967;entryDx=0;entryDy=0;entryPerimeter=0;exitX=0.5;exitY=0;exitDx=0;exitDy=0;" edge="1" parent="1" source="q-3NJ_i0JlGtm7fgb5uP-29" target="0n1-I_KRBoGYLclnzSfa-27">
          <mxGeometry width="50" height="50" relative="1" as="geometry">
            <mxPoint x="214" y="-655" as="sourcePoint" />
            <mxPoint x="264" y="-705" as="targetPoint" />
          </mxGeometry>
        </mxCell>
      </root>
    </mxGraphModel>
  </diagram>
</mxfile>
